%TF.GenerationSoftware,KiCad,Pcbnew,(6.0.5)*%
%TF.CreationDate,2022-05-17T14:08:41+02:00*%
%TF.ProjectId,i2c_bus_magslide,6932635f-6275-4735-9f6d-6167736c6964,rev?*%
%TF.SameCoordinates,Original*%
%TF.FileFunction,Soldermask,Top*%
%TF.FilePolarity,Negative*%
%FSLAX46Y46*%
G04 Gerber Fmt 4.6, Leading zero omitted, Abs format (unit mm)*
G04 Created by KiCad (PCBNEW (6.0.5)) date 2022-05-17 14:08:41*
%MOMM*%
%LPD*%
G01*
G04 APERTURE LIST*
G04 Aperture macros list*
%AMFreePoly0*
4,1,22,0.500000,-0.750000,0.000000,-0.750000,0.000000,-0.745033,-0.079941,-0.743568,-0.215256,-0.701293,-0.333266,-0.622738,-0.424486,-0.514219,-0.481581,-0.384460,-0.499164,-0.250000,-0.500000,-0.250000,-0.500000,0.250000,-0.499164,0.250000,-0.499963,0.256109,-0.478152,0.396186,-0.417904,0.524511,-0.324060,0.630769,-0.204165,0.706417,-0.067858,0.745374,0.000000,0.744959,0.000000,0.750000,
0.500000,0.750000,0.500000,-0.750000,0.500000,-0.750000,$1*%
%AMFreePoly1*
4,1,20,0.000000,0.744959,0.073905,0.744508,0.209726,0.703889,0.328688,0.626782,0.421226,0.519385,0.479903,0.390333,0.500000,0.250000,0.500000,-0.250000,0.499851,-0.262216,0.476331,-0.402017,0.414519,-0.529596,0.319384,-0.634700,0.198574,-0.708877,0.061801,-0.746166,0.000000,-0.745033,0.000000,-0.750000,-0.500000,-0.750000,-0.500000,0.750000,0.000000,0.750000,0.000000,0.744959,
0.000000,0.744959,$1*%
G04 Aperture macros list end*
%ADD10C,3.200000*%
%ADD11C,1.600000*%
%ADD12FreePoly0,180.000000*%
%ADD13FreePoly1,180.000000*%
%ADD14R,1.700000X1.700000*%
%ADD15O,1.700000X1.700000*%
%ADD16C,1.200000*%
%ADD17O,2.200000X1.800000*%
%ADD18O,1.800000X2.200000*%
G04 APERTURE END LIST*
D10*
%TO.C,H2*%
X155700000Y-75500000D03*
%TD*%
%TO.C,H1*%
X185500000Y-75500000D03*
%TD*%
D11*
%TO.C,R2*%
X166200000Y-76700000D03*
X171280000Y-76700000D03*
%TD*%
%TO.C,R1*%
X171280000Y-72700000D03*
X166200000Y-72700000D03*
%TD*%
D12*
%TO.C,JP2*%
X177850000Y-76700000D03*
D13*
X176550000Y-76700000D03*
%TD*%
D12*
%TO.C,JP1*%
X177850000Y-72700000D03*
D13*
X176550000Y-72700000D03*
%TD*%
D14*
%TO.C,J12*%
X183000000Y-65000000D03*
D15*
X185540000Y-65000000D03*
X188080000Y-65000000D03*
%TD*%
D14*
%TO.C,J11*%
X153300000Y-65000000D03*
D15*
X155840000Y-65000000D03*
X158380000Y-65000000D03*
X160920000Y-65000000D03*
X163460000Y-65000000D03*
%TD*%
D16*
%TO.C,J10*%
X144025000Y-78700000D03*
X137025000Y-78700000D03*
D17*
X138525000Y-82000000D03*
X146525000Y-75850000D03*
D18*
X147325000Y-78700000D03*
D17*
X146525000Y-81550000D03*
X138525000Y-75400000D03*
%TD*%
%TO.C,J9*%
X138525000Y-64400000D03*
X146525000Y-70550000D03*
D18*
X147325000Y-67700000D03*
D17*
X146525000Y-64850000D03*
X138525000Y-71000000D03*
D16*
X137025000Y-67700000D03*
X144025000Y-67700000D03*
%TD*%
%TO.C,J8*%
X155100000Y-85975000D03*
X155100000Y-92975000D03*
D18*
X158400000Y-91475000D03*
X152250000Y-83475000D03*
D17*
X155100000Y-82675000D03*
D18*
X157950000Y-83475000D03*
X151800000Y-91475000D03*
%TD*%
D16*
%TO.C,J7*%
X197975000Y-67600000D03*
X204975000Y-67600000D03*
D17*
X203475000Y-64300000D03*
X195475000Y-70450000D03*
D18*
X194675000Y-67600000D03*
D17*
X195475000Y-64750000D03*
X203475000Y-70900000D03*
%TD*%
%TO.C,J6*%
X138525000Y-86400000D03*
X146525000Y-92550000D03*
D18*
X147325000Y-89700000D03*
D17*
X146525000Y-86850000D03*
X138525000Y-93000000D03*
D16*
X137025000Y-89700000D03*
X144025000Y-89700000D03*
%TD*%
%TO.C,J5*%
X197975000Y-78600000D03*
X204975000Y-78600000D03*
D17*
X203475000Y-75300000D03*
X195475000Y-81450000D03*
D18*
X194675000Y-78600000D03*
D17*
X195475000Y-75750000D03*
X203475000Y-81900000D03*
%TD*%
D18*
%TO.C,J4*%
X174025000Y-91475000D03*
X180175000Y-83475000D03*
D17*
X177325000Y-82675000D03*
D18*
X174475000Y-83475000D03*
X180625000Y-91475000D03*
D16*
X177325000Y-92975000D03*
X177325000Y-85975000D03*
%TD*%
%TO.C,J3*%
X166325000Y-85975000D03*
X166325000Y-92975000D03*
D18*
X169625000Y-91475000D03*
X163475000Y-83475000D03*
D17*
X166325000Y-82675000D03*
D18*
X169175000Y-83475000D03*
X163025000Y-91475000D03*
%TD*%
D16*
%TO.C,J2*%
X197975000Y-89600000D03*
X204975000Y-89600000D03*
D17*
X203475000Y-86300000D03*
X195475000Y-92450000D03*
D18*
X194675000Y-89600000D03*
D17*
X195475000Y-86750000D03*
X203475000Y-92900000D03*
%TD*%
D16*
%TO.C,J1*%
X187325000Y-85975000D03*
X187325000Y-92975000D03*
D18*
X190625000Y-91475000D03*
X184475000Y-83475000D03*
D17*
X187325000Y-82675000D03*
D18*
X190175000Y-83475000D03*
X184025000Y-91475000D03*
%TD*%
M02*
