%TF.GenerationSoftware,KiCad,Pcbnew,(6.0.5)*%
%TF.CreationDate,2022-05-17T14:08:41+02:00*%
%TF.ProjectId,i2c_bus_magslide,6932635f-6275-4735-9f6d-6167736c6964,rev?*%
%TF.SameCoordinates,Original*%
%TF.FileFunction,Copper,L1,Top*%
%TF.FilePolarity,Positive*%
%FSLAX46Y46*%
G04 Gerber Fmt 4.6, Leading zero omitted, Abs format (unit mm)*
G04 Created by KiCad (PCBNEW (6.0.5)) date 2022-05-17 14:08:41*
%MOMM*%
%LPD*%
G01*
G04 APERTURE LIST*
G04 Aperture macros list*
%AMFreePoly0*
4,1,22,0.500000,-0.750000,0.000000,-0.750000,0.000000,-0.745033,-0.079941,-0.743568,-0.215256,-0.701293,-0.333266,-0.622738,-0.424486,-0.514219,-0.481581,-0.384460,-0.499164,-0.250000,-0.500000,-0.250000,-0.500000,0.250000,-0.499164,0.250000,-0.499963,0.256109,-0.478152,0.396186,-0.417904,0.524511,-0.324060,0.630769,-0.204165,0.706417,-0.067858,0.745374,0.000000,0.744959,0.000000,0.750000,
0.500000,0.750000,0.500000,-0.750000,0.500000,-0.750000,$1*%
%AMFreePoly1*
4,1,20,0.000000,0.744959,0.073905,0.744508,0.209726,0.703889,0.328688,0.626782,0.421226,0.519385,0.479903,0.390333,0.500000,0.250000,0.500000,-0.250000,0.499851,-0.262216,0.476331,-0.402017,0.414519,-0.529596,0.319384,-0.634700,0.198574,-0.708877,0.061801,-0.746166,0.000000,-0.745033,0.000000,-0.750000,-0.500000,-0.750000,-0.500000,0.750000,0.000000,0.750000,0.000000,0.744959,
0.000000,0.744959,$1*%
G04 Aperture macros list end*
%TA.AperFunction,ComponentPad*%
%ADD10C,1.600000*%
%TD*%
%TA.AperFunction,SMDPad,CuDef*%
%ADD11FreePoly0,180.000000*%
%TD*%
%TA.AperFunction,SMDPad,CuDef*%
%ADD12FreePoly1,180.000000*%
%TD*%
%TA.AperFunction,ComponentPad*%
%ADD13R,1.700000X1.700000*%
%TD*%
%TA.AperFunction,ComponentPad*%
%ADD14O,1.700000X1.700000*%
%TD*%
%TA.AperFunction,ComponentPad*%
%ADD15O,2.200000X1.800000*%
%TD*%
%TA.AperFunction,ComponentPad*%
%ADD16O,1.800000X2.200000*%
%TD*%
%TA.AperFunction,ViaPad*%
%ADD17C,0.800000*%
%TD*%
%TA.AperFunction,Conductor*%
%ADD18C,0.250000*%
%TD*%
G04 APERTURE END LIST*
D10*
%TO.P,R2,1*%
%TO.N,+3V3*%
X166200000Y-76700000D03*
%TO.P,R2,2*%
%TO.N,Net-(JP2-Pad2)*%
X171280000Y-76700000D03*
%TD*%
%TO.P,R1,2*%
%TO.N,Net-(JP1-Pad2)*%
X171280000Y-72700000D03*
%TO.P,R1,1*%
%TO.N,+3V3*%
X166200000Y-72700000D03*
%TD*%
D11*
%TO.P,JP2,1,A*%
%TO.N,SCL*%
X177850000Y-76700000D03*
D12*
%TO.P,JP2,2,B*%
%TO.N,Net-(JP2-Pad2)*%
X176550000Y-76700000D03*
%TD*%
D11*
%TO.P,JP1,1,A*%
%TO.N,SDA*%
X177850000Y-72700000D03*
D12*
%TO.P,JP1,2,B*%
%TO.N,Net-(JP1-Pad2)*%
X176550000Y-72700000D03*
%TD*%
D13*
%TO.P,J12,1,Pin_1*%
%TO.N,GND*%
X183000000Y-65000000D03*
D14*
%TO.P,J12,2,Pin_2*%
%TO.N,SDA*%
X185540000Y-65000000D03*
%TO.P,J12,3,Pin_3*%
%TO.N,SCL*%
X188080000Y-65000000D03*
%TD*%
D13*
%TO.P,J11,1,Pin_1*%
%TO.N,GND*%
X153300000Y-65000000D03*
D14*
%TO.P,J11,2,Pin_2*%
%TO.N,SDA*%
X155840000Y-65000000D03*
%TO.P,J11,3,Pin_3*%
%TO.N,SCL*%
X158380000Y-65000000D03*
%TO.P,J11,4,Pin_4*%
%TO.N,+3V3*%
X160920000Y-65000000D03*
%TO.P,J11,5,Pin_5*%
%TO.N,+5V*%
X163460000Y-65000000D03*
%TD*%
D15*
%TO.P,J10,4,4*%
%TO.N,GND*%
X138525000Y-82000000D03*
%TO.P,J10,2,2*%
%TO.N,SCL*%
X146525000Y-75850000D03*
D16*
%TO.P,J10,1,1*%
%TO.N,+5V*%
X147325000Y-78700000D03*
D15*
%TO.P,J10,3,3*%
%TO.N,SDA*%
X146525000Y-81550000D03*
%TO.P,J10,4,4*%
%TO.N,GND*%
X138525000Y-75400000D03*
%TD*%
%TO.P,J9,4,4*%
%TO.N,GND*%
X138525000Y-64400000D03*
%TO.P,J9,3,3*%
%TO.N,SDA*%
X146525000Y-70550000D03*
D16*
%TO.P,J9,1,1*%
%TO.N,+5V*%
X147325000Y-67700000D03*
D15*
%TO.P,J9,2,2*%
%TO.N,SCL*%
X146525000Y-64850000D03*
%TO.P,J9,4,4*%
%TO.N,GND*%
X138525000Y-71000000D03*
%TD*%
D16*
%TO.P,J8,4,4*%
%TO.N,GND*%
X158400000Y-91475000D03*
%TO.P,J8,2,2*%
%TO.N,SCL*%
X152250000Y-83475000D03*
D15*
%TO.P,J8,1,1*%
%TO.N,+5V*%
X155100000Y-82675000D03*
D16*
%TO.P,J8,3,3*%
%TO.N,SDA*%
X157950000Y-83475000D03*
%TO.P,J8,4,4*%
%TO.N,GND*%
X151800000Y-91475000D03*
%TD*%
D15*
%TO.P,J7,4,4*%
%TO.N,GND*%
X203475000Y-64300000D03*
%TO.P,J7,2,2*%
%TO.N,SCL*%
X195475000Y-70450000D03*
D16*
%TO.P,J7,1,1*%
%TO.N,+5V*%
X194675000Y-67600000D03*
D15*
%TO.P,J7,3,3*%
%TO.N,SDA*%
X195475000Y-64750000D03*
%TO.P,J7,4,4*%
%TO.N,GND*%
X203475000Y-70900000D03*
%TD*%
%TO.P,J6,4,4*%
%TO.N,GND*%
X138525000Y-86400000D03*
%TO.P,J6,3,3*%
%TO.N,SDA*%
X146525000Y-92550000D03*
D16*
%TO.P,J6,1,1*%
%TO.N,+5V*%
X147325000Y-89700000D03*
D15*
%TO.P,J6,2,2*%
%TO.N,SCL*%
X146525000Y-86850000D03*
%TO.P,J6,4,4*%
%TO.N,GND*%
X138525000Y-93000000D03*
%TD*%
%TO.P,J5,4,4*%
%TO.N,GND*%
X203475000Y-75300000D03*
%TO.P,J5,2,2*%
%TO.N,SCL*%
X195475000Y-81450000D03*
D16*
%TO.P,J5,1,1*%
%TO.N,+5V*%
X194675000Y-78600000D03*
D15*
%TO.P,J5,3,3*%
%TO.N,SDA*%
X195475000Y-75750000D03*
%TO.P,J5,4,4*%
%TO.N,GND*%
X203475000Y-81900000D03*
%TD*%
D16*
%TO.P,J4,4,4*%
%TO.N,GND*%
X174025000Y-91475000D03*
%TO.P,J4,3,3*%
%TO.N,SDA*%
X180175000Y-83475000D03*
D15*
%TO.P,J4,1,1*%
%TO.N,+5V*%
X177325000Y-82675000D03*
D16*
%TO.P,J4,2,2*%
%TO.N,SCL*%
X174475000Y-83475000D03*
%TO.P,J4,4,4*%
%TO.N,GND*%
X180625000Y-91475000D03*
%TD*%
%TO.P,J3,4,4*%
%TO.N,GND*%
X169625000Y-91475000D03*
%TO.P,J3,2,2*%
%TO.N,SCL*%
X163475000Y-83475000D03*
D15*
%TO.P,J3,1,1*%
%TO.N,+5V*%
X166325000Y-82675000D03*
D16*
%TO.P,J3,3,3*%
%TO.N,SDA*%
X169175000Y-83475000D03*
%TO.P,J3,4,4*%
%TO.N,GND*%
X163025000Y-91475000D03*
%TD*%
D15*
%TO.P,J2,4,4*%
%TO.N,GND*%
X203475000Y-86300000D03*
%TO.P,J2,2,2*%
%TO.N,SCL*%
X195475000Y-92450000D03*
D16*
%TO.P,J2,1,1*%
%TO.N,+5V*%
X194675000Y-89600000D03*
D15*
%TO.P,J2,3,3*%
%TO.N,SDA*%
X195475000Y-86750000D03*
%TO.P,J2,4,4*%
%TO.N,GND*%
X203475000Y-92900000D03*
%TD*%
D16*
%TO.P,J1,4,4*%
%TO.N,GND*%
X190625000Y-91475000D03*
%TO.P,J1,2,2*%
%TO.N,SCL*%
X184475000Y-83475000D03*
D15*
%TO.P,J1,1,1*%
%TO.N,+5V*%
X187325000Y-82675000D03*
D16*
%TO.P,J1,3,3*%
%TO.N,SDA*%
X190175000Y-83475000D03*
%TO.P,J1,4,4*%
%TO.N,GND*%
X184025000Y-91475000D03*
%TD*%
D17*
%TO.N,SDA*%
X143000000Y-84000000D03*
%TO.N,SCL*%
X172500000Y-80699500D03*
%TD*%
D18*
%TO.N,SDA*%
X143000000Y-90375000D02*
X143000000Y-84000000D01*
X145175000Y-92550000D02*
X143000000Y-90375000D01*
X146525000Y-92550000D02*
X145175000Y-92550000D01*
%TO.N,SCL*%
X174259440Y-80699500D02*
X172500000Y-80699500D01*
X177850000Y-77108940D02*
X174259440Y-80699500D01*
X177850000Y-76700000D02*
X177850000Y-77108940D01*
%TO.N,SDA*%
X177850000Y-72700000D02*
X180175000Y-75025000D01*
X180175000Y-75025000D02*
X180175000Y-83475000D01*
X195475000Y-64750000D02*
X191750000Y-64750000D01*
X191750000Y-64750000D02*
X189750000Y-66750000D01*
X187290000Y-66750000D02*
X185540000Y-65000000D01*
X189750000Y-66750000D02*
X187290000Y-66750000D01*
%TO.N,SCL*%
X195475000Y-70450000D02*
X196899520Y-69025480D01*
X196899520Y-69025480D02*
X196899520Y-64099520D01*
X196899520Y-64099520D02*
X196300000Y-63500000D01*
X196300000Y-63500000D02*
X189580000Y-63500000D01*
X189580000Y-63500000D02*
X188080000Y-65000000D01*
%TO.N,SDA*%
X195475000Y-64750000D02*
X193450480Y-66774520D01*
X193450480Y-66774520D02*
X193450480Y-73725480D01*
X193450480Y-73725480D02*
X195475000Y-75750000D01*
%TO.N,SCL*%
X195475000Y-70450000D02*
X196899520Y-71874520D01*
X196899520Y-80025480D02*
X195475000Y-81450000D01*
X196899520Y-71874520D02*
X196899520Y-80025480D01*
%TO.N,SDA*%
X195475000Y-75750000D02*
X190175000Y-81050000D01*
X190175000Y-81050000D02*
X190175000Y-83475000D01*
%TO.N,SCL*%
X195475000Y-81450000D02*
X196899520Y-82874520D01*
X196899520Y-82874520D02*
X196899520Y-91025480D01*
X196899520Y-91025480D02*
X195475000Y-92450000D01*
%TO.N,SDA*%
X188150480Y-81450480D02*
X182199520Y-81450480D01*
X182199520Y-81450480D02*
X180175000Y-83475000D01*
X190175000Y-83475000D02*
X188150480Y-81450480D01*
%TO.N,SCL*%
X195475000Y-92450000D02*
X188025479Y-85000479D01*
X188025479Y-85000479D02*
X186000479Y-85000479D01*
X186000479Y-85000479D02*
X184475000Y-83475000D01*
%TO.N,SDA*%
X195475000Y-86750000D02*
X193450000Y-86750000D01*
X193450000Y-86750000D02*
X190175000Y-83475000D01*
%TO.N,SCL*%
X184475000Y-83475000D02*
X183050480Y-84899520D01*
X183050480Y-84899520D02*
X175899520Y-84899520D01*
X175899520Y-84899520D02*
X174475000Y-83475000D01*
%TO.N,SDA*%
X180175000Y-83475000D02*
X178150480Y-81450480D01*
X178150480Y-81450480D02*
X171199520Y-81450480D01*
X171199520Y-81450480D02*
X169175000Y-83475000D01*
%TO.N,SCL*%
X174475000Y-83475000D02*
X172949521Y-85000479D01*
X172949521Y-85000479D02*
X165000479Y-85000479D01*
X165000479Y-85000479D02*
X163475000Y-83475000D01*
%TO.N,SDA*%
X169175000Y-83475000D02*
X169056732Y-83475000D01*
X169056732Y-83475000D02*
X167032212Y-81450480D01*
X167032212Y-81450480D02*
X159974520Y-81450480D01*
X159974520Y-81450480D02*
X157950000Y-83475000D01*
%TO.N,SCL*%
X163475000Y-83475000D02*
X160000479Y-86949521D01*
X160000479Y-86949521D02*
X146624521Y-86949521D01*
X146624521Y-86949521D02*
X146525000Y-86850000D01*
%TO.N,SDA*%
X157950000Y-83475000D02*
X155925480Y-81450480D01*
X155925480Y-81450480D02*
X146624520Y-81450480D01*
X146624520Y-81450480D02*
X146525000Y-81550000D01*
%TO.N,SCL*%
X146525000Y-86850000D02*
X148875000Y-86850000D01*
X148875000Y-86850000D02*
X152250000Y-83475000D01*
X146525000Y-86850000D02*
X145100480Y-85425480D01*
X145100480Y-85425480D02*
X145100480Y-77274520D01*
X145100480Y-77274520D02*
X146525000Y-75850000D01*
%TO.N,SDA*%
X146525000Y-70550000D02*
X149050000Y-70550000D01*
X149050000Y-70550000D02*
X150290000Y-70550000D01*
X146525000Y-81550000D02*
X149050000Y-79025000D01*
X149050000Y-79025000D02*
X149050000Y-70550000D01*
%TO.N,SCL*%
X146525000Y-75850000D02*
X145100480Y-74425480D01*
X145100480Y-74425480D02*
X145100480Y-66274520D01*
X145100480Y-66274520D02*
X146525000Y-64850000D01*
%TO.N,SDA*%
X150290000Y-70550000D02*
X155840000Y-65000000D01*
%TO.N,SCL*%
X146525000Y-64850000D02*
X147549511Y-63825489D01*
X147549511Y-63825489D02*
X157205489Y-63825489D01*
X157205489Y-63825489D02*
X158380000Y-65000000D01*
%TO.N,+3V3*%
X166200000Y-72700000D02*
X166200000Y-70280000D01*
X166200000Y-70280000D02*
X160920000Y-65000000D01*
X166200000Y-76700000D02*
X166200000Y-72700000D01*
%TO.N,Net-(JP2-Pad2)*%
X176550000Y-76700000D02*
X171280000Y-76700000D01*
%TO.N,Net-(JP1-Pad2)*%
X171280000Y-72700000D02*
X176550000Y-72700000D01*
%TD*%
M02*
