M48
; DRILL file {KiCad (6.0.5)} date Tue 17 May 2022 02:08:41 PM CEST
; FORMAT={-:-/ absolute / inch / decimal}
; #@! TF.CreationDate,2022-05-17T14:08:41+02:00
; #@! TF.GenerationSoftware,Kicad,Pcbnew,(6.0.5)
; #@! TF.FileFunction,Plated,1,2,PTH
FMAT,2
INCH
; #@! TA.AperFunction,Plated,PTH,ViaDrill
T1C0.0157
; #@! TA.AperFunction,Plated,PTH,ComponentDrill
T2C0.0315
; #@! TA.AperFunction,Plated,PTH,ComponentDrill
T3C0.0394
%
G90
G05
T1
X5.6299Y-3.3071
X6.7913Y-3.1771
T2
X6.5433Y-2.8622
X6.5433Y-3.0197
X6.7433Y-2.8622
X6.7433Y-3.0197
T3
X6.0354Y-2.5591
X6.1354Y-2.5591
X6.2354Y-2.5591
X6.3354Y-2.5591
X6.4354Y-2.5591
X7.2047Y-2.5591
X7.3047Y-2.5591
X7.4047Y-2.5591
T2
G00X5.44Y-2.5354
M15
G01X5.4675Y-2.5354
M16
G05
G00X5.44Y-2.7953
M15
G01X5.4675Y-2.7953
M16
G05
G00X5.44Y-2.9685
M15
G01X5.4675Y-2.9685
M16
G05
G00X5.44Y-3.2283
M15
G01X5.4675Y-3.2283
M16
G05
G00X5.44Y-3.4016
M15
G01X5.4675Y-3.4016
M16
G05
G00X5.44Y-3.6614
M15
G01X5.4675Y-3.6614
M16
G05
G00X5.7549Y-2.5531
M15
G01X5.7825Y-2.5531
M16
G05
G00X5.7549Y-2.7776
M15
G01X5.7825Y-2.7776
M16
G05
G00X5.7549Y-2.9862
M15
G01X5.7825Y-2.9862
M16
G05
G00X5.7549Y-3.2106
M15
G01X5.7825Y-3.2106
M16
G05
G00X5.7549Y-3.4193
M15
G01X5.7825Y-3.4193
M16
G05
G00X5.7549Y-3.6437
M15
G01X5.7825Y-3.6437
M16
G05
G00X5.8002Y-2.6791
M15
G01X5.8002Y-2.6516
M16
G05
G00X5.8002Y-3.1122
M15
G01X5.8002Y-3.0846
M16
G05
G00X5.8002Y-3.5453
M15
G01X5.8002Y-3.5177
M16
G05
G00X5.9764Y-3.6152
M15
G01X5.9764Y-3.5876
M16
G05
G00X5.9941Y-3.3002
M15
G01X5.9941Y-3.2726
M16
G05
G00X6.1201Y-3.2549
M15
G01X6.0925Y-3.2549
M16
G05
G00X6.2185Y-3.3002
M15
G01X6.2185Y-3.2726
M16
G05
G00X6.2362Y-3.6152
M15
G01X6.2362Y-3.5876
M16
G05
G00X6.4183Y-3.6152
M15
G01X6.4183Y-3.5876
M16
G05
G00X6.436Y-3.3002
M15
G01X6.436Y-3.2726
M16
G05
G00X6.562Y-3.2549
M15
G01X6.5344Y-3.2549
M16
G05
G00X6.6604Y-3.3002
M15
G01X6.6604Y-3.2726
M16
G05
G00X6.6781Y-3.6152
M15
G01X6.6781Y-3.5876
M16
G05
G00X6.8514Y-3.6152
M15
G01X6.8514Y-3.5876
M16
G05
G00X6.8691Y-3.3002
M15
G01X6.8691Y-3.2726
M16
G05
G00X6.9951Y-3.2549
M15
G01X6.9675Y-3.2549
M16
G05
G00X7.0935Y-3.3002
M15
G01X7.0935Y-3.2726
M16
G05
G00X7.1112Y-3.6152
M15
G01X7.1112Y-3.5876
M16
G05
G00X7.2451Y-3.6152
M15
G01X7.2451Y-3.5876
M16
G05
G00X7.2628Y-3.3002
M15
G01X7.2628Y-3.2726
M16
G05
G00X7.3888Y-3.2549
M15
G01X7.3612Y-3.2549
M16
G05
G00X7.4872Y-3.3002
M15
G01X7.4872Y-3.2726
M16
G05
G00X7.5049Y-3.6152
M15
G01X7.5049Y-3.5876
M16
G05
G00X7.6644Y-2.6476
M15
G01X7.6644Y-2.6752
M16
G05
G00X7.6644Y-3.0807
M15
G01X7.6644Y-3.1083
M16
G05
G00X7.6644Y-3.5138
M15
G01X7.6644Y-3.5413
M16
G05
G00X7.7096Y-2.5492
M15
G01X7.6821Y-2.5492
M16
G05
G00X7.7096Y-2.7736
M15
G01X7.6821Y-2.7736
M16
G05
G00X7.7096Y-2.9823
M15
G01X7.6821Y-2.9823
M16
G05
G00X7.7096Y-3.2067
M15
G01X7.6821Y-3.2067
M16
G05
G00X7.7096Y-3.4154
M15
G01X7.6821Y-3.4154
M16
G05
G00X7.7096Y-3.6398
M15
G01X7.6821Y-3.6398
M16
G05
G00X8.0246Y-2.5315
M15
G01X7.997Y-2.5315
M16
G05
G00X8.0246Y-2.7913
M15
G01X7.997Y-2.7913
M16
G05
G00X8.0246Y-2.9646
M15
G01X7.997Y-2.9646
M16
G05
G00X8.0246Y-3.2244
M15
G01X7.997Y-3.2244
M16
G05
G00X8.0246Y-3.3976
M15
G01X7.997Y-3.3976
M16
G05
G00X8.0246Y-3.6575
M15
G01X7.997Y-3.6575
M16
G05
T0
M30
