M48
; DRILL file {KiCad (6.0.5)} date Tue 17 May 2022 02:08:41 PM CEST
; FORMAT={-:-/ absolute / inch / decimal}
; #@! TF.CreationDate,2022-05-17T14:08:41+02:00
; #@! TF.GenerationSoftware,Kicad,Pcbnew,(6.0.5)
; #@! TF.FileFunction,NonPlated,1,2,NPTH
FMAT,2
INCH
; #@! TA.AperFunction,NonPlated,NPTH,ComponentDrill
T1C0.0472
; #@! TA.AperFunction,NonPlated,NPTH,ComponentDrill
T2C0.1260
%
G90
G05
T1
X5.3947Y-2.6654
X5.3947Y-3.0984
X5.3947Y-3.5315
X5.6703Y-2.6654
X5.6703Y-3.0984
X5.6703Y-3.5315
X6.1063Y-3.3848
X6.1063Y-3.6604
X6.5482Y-3.3848
X6.5482Y-3.6604
X6.9813Y-3.3848
X6.9813Y-3.6604
X7.375Y-3.3848
X7.375Y-3.6604
X7.7943Y-2.6614
X7.7943Y-3.0945
X7.7943Y-3.5276
X8.0699Y-2.6614
X8.0699Y-3.0945
X8.0699Y-3.5276
T2
X6.1299Y-2.9724
X7.3031Y-2.9724
T0
M30
